<?xml version="1.0" encoding="utf-8"?>
<!-- Generator: Adobe Illustrator 25.0.1, SVG Export Plug-In . SVG Version: 6.00 Build 0)  -->
<svg version="1.1" id="Layer_1" xmlns="http://www.w3.org/2000/svg" xmlns:xlink="http://www.w3.org/1999/xlink" x="0px" y="0px"
	 viewBox="0 0 970.6 687.4" style="enable-background:new 0 0 970.6 687.4;" xml:space="preserve">
<style type="text/css">
	.st0{fill:#3D5A80;}
</style>
<path class="st0" d="M276.1,102c-12.5-30-45.3-46.1-76.9-42.1c-27.4,3.5-47.8,20.1-65.4,39.6c-10.6-7.3-26.7-9.2-26.9,2.7
	l-5.7,365.7l-1.6,104.5c-0.3,15.8,35.6,28.7,35.9,11l3-189.9c0.3,0.7,0.6,1.3,0.9,2c9.1,21.6,17.7,43.4,25.7,65.5
	c18.4,50.8,33.9,102.5,46.3,155.1c3.5,14.8,39.8,23.8,35.1,4C226,534.3,197.6,450.5,161.7,370c36.6-59,71.3-119.4,102.6-181.4
	C277.7,161.8,288.3,131.3,276.1,102z M243.4,138.5c-5.6,22.3-18.7,43.1-29.4,63.3c-23.1,43.4-47.4,86.2-72.9,128.3l-1.7,2.9
	l1.7-115.3c0.4-25.3,0.8-50.5,1.2-75.8c2.8,0.1,5.4-1,7.2-3.1c12.8-15.9,26.1-32.6,43.8-43.3c11.2-6.8,31.1-12.8,41.5-4.8
	C248.4,100.9,247,124.2,243.4,138.5L243.4,138.5z"/>
<path class="st0" d="M413.6,351.5c-0.4-43.4-0.8-86.8-1.2-130.3c-0.2-21.1-0.3-42.3-0.6-63.4c-0.3-17.3-1.5-35-9.8-50.5
	c-9.4-17.2-26.7-28.6-46.2-30.6c-15.4-1.6-34.2,3.3-39.6,19.6c-2.8,8.6,4.3,16,11.5,19.6c5.2,2.6,19.8,6.2,22.7-2.2
	c1.3-3.9,2.9-6.6,6.4-8.3c2.8-1.3,6.1-1.6,9-0.6c0.5,0.2,0.9,0.5,1.3,0.8c0.8,1.7,1.8,3.3,2.8,4.8c2.9,6.2,4.7,12.8,5.2,19.6
	c1.9,17.3,1,35.1,1.1,52.5l0.5,57.3v3.9c-4.4-13.5-9.7-26.7-15.8-39.6c-4.7-9.8-26-18.7-33.1-7.1c-36.8,60.3-57.6,128.9-60.5,199.5
	c-0.7,17.8-0.2,35.6,1.4,53.2c1.5,15.5,3.1,31.4,7.8,46.3c9.7,30.1,34.3,58.4,68.8,55.8c8.3-0.7,16.3-3.5,23.2-8.2
	c2.4,21.7,6.4,43.3,11.9,64.5c2.1,8.1,11.3,13.9,19,15.3c5.7,1.1,16.5,0.5,16.4-7.9C415.2,527.5,414.4,439.5,413.6,351.5z
	 M357.1,498.2c-4.3,10.9-12.9,22.7-25,25.4c-1.9,0.3-3.8,0.3-5.8,0.2c0,0-1.1-0.6-1.2-0.6c-2.7-2-4.9-4.6-6.4-7.6
	c-6.1-9.8-9.2-21.4-11.1-32.6c-10-57.8-4.7-119.8,12.4-175.7c6.4-20.8,14.5-41.1,24.2-60.6c19.8,64.3,18.5,133.6,19.3,201.5
	c-0.7,1.3-1,2.8-1,4.3C362.5,467.6,362.7,483.8,357.1,498.2z"/>
<path class="st0" d="M589.1,482.3c-12.2,21.3-8.7,45.5-11.8,68.8c-1.9,14.8-9.7,31.4-24.2,36.3c-1.7,0.6-3.1-0.6-1.6-0.1
	s-1.2-1-1.2-1c-2.8-3.2-5.2-6.6-7.3-10.2c-5.1-9.5-9.5-19.4-13.2-29.6c-8.8-22.4-16.1-45.3-22-68.5c-23.6-94.5-22.9-193.5,2.1-287.7
	c6.7-25.7,15.5-50.9,26.3-75.2c4.4-9.6,9.7-19.8,19.6-24.7c-0.3,1-0.7,1.9-1.2,2.8c-8.3,14.1,25.6,32,34.2,17.4
	c15-25.6-22.8-49.4-44.4-48.8c-27.9,0.8-40.1,29.6-48.8,51.6c-21.4,54.2-34.5,111.3-39,169.4c-4.4,58.2-0.4,116.7,12,173.7
	c6.2,28.4,14.5,56.2,25,83.3c9.5,24.4,19.2,52.4,42.6,67c13,8,30.3,11.7,44.8,5.2c11.6-5.2,20.2-15.4,25.6-26.7
	c12.7-27.2,1.7-59.5,16.6-85.6C631.3,485.5,597.4,467.7,589.1,482.3z"/>
<path class="st0" d="M888.5,569c-5-3.7-19.4-9.6-24.9-3l-3,3.7c-15.3-36.1-25.4-74.2-29.9-113.2c-2.9-24.9-3.5-49.9-1.7-74.9
	c1.4-21.4,6.1-42.9,4-64.5c-2.2-22.9-12.8-42.7-33.8-54.3c-21.8-11.6-48-11.6-69.7,0.2c-15.3,8.4-26.7,21.6-35.5,36.3l-1.7-112.8
	l-1.7-108.2c-0.1-8.9-9-15.5-17.1-17.8c-5.9-1.7-18.9-1.8-18.8,7.2l5.6,344.5c-4.9,47.3-1.4,95.2,2.3,142.5
	c0.7,8.9,8.7,15.3,17.1,17.8c5.9,1.7,18.9,1.7,18.8-7.2c-0.8-47.5-1.5-94.9-2.3-142.4c2-22.1,6.5-43.9,13.4-65
	c6.7-19.7,15.4-41.2,29.6-56.9c6.2-7.2,13.9-12.9,22.7-16.6c7-2.7,17.3-5.2,24.4-1.5c11.1,5.9,11.8,26.7,11.5,38.1
	c-0.5,20.7-4.4,41.3-5.2,62c-2.7,76.3,14.6,152,50.1,219.5c3.9,7.4,23.6,18.4,31,9.4c6.7-8,13.3-16,20-24
	C899.2,581.2,895,573.7,888.5,569z"/>
</svg>
